<mxfile host="app.diagrams.net" modified="2023-08-13T13:08:00.279Z" agent="Mozilla/5.0 (X11; Linux x86_64) AppleWebKit/537.36 (KHTML, like Gecko) Chrome/99.0.4844.51 Safari/537.36" etag="fVNEz33z3CI7J_G1IoS5" version="21.6.8" type="github">
  <diagram id="R2lEEEUBdFMjLlhIrx00" name="Page-1">
    <mxGraphModel dx="2037" dy="1061" grid="1" gridSize="10" guides="1" tooltips="1" connect="1" arrows="1" fold="1" page="1" pageScale="1" pageWidth="850" pageHeight="1100" math="0" shadow="0" extFonts="Permanent Marker^https://fonts.googleapis.com/css?family=Permanent+Marker">
      <root>
        <mxCell id="0" />
        <mxCell id="1" parent="0" />
        <mxCell id="yp1fL01CQpwrRcFzFMxe-127" style="edgeStyle=orthogonalEdgeStyle;rounded=0;orthogonalLoop=1;jettySize=auto;html=1;entryX=0.5;entryY=0;entryDx=0;entryDy=0;" edge="1" parent="1" source="yp1fL01CQpwrRcFzFMxe-72" target="yp1fL01CQpwrRcFzFMxe-80">
          <mxGeometry relative="1" as="geometry" />
        </mxCell>
        <mxCell id="yp1fL01CQpwrRcFzFMxe-72" value="Hospital" style="swimlane;fontStyle=0;childLayout=stackLayout;horizontal=1;startSize=26;horizontalStack=0;resizeParent=1;resizeParentMax=0;resizeLast=0;collapsible=1;marginBottom=0;align=center;fontSize=14;" vertex="1" parent="1">
          <mxGeometry x="300" y="370" width="160" height="116" as="geometry" />
        </mxCell>
        <mxCell id="yp1fL01CQpwrRcFzFMxe-73" value="name" style="text;strokeColor=none;fillColor=none;spacingLeft=4;spacingRight=4;overflow=hidden;rotatable=0;points=[[0,0.5],[1,0.5]];portConstraint=eastwest;fontSize=12;whiteSpace=wrap;html=1;" vertex="1" parent="yp1fL01CQpwrRcFzFMxe-72">
          <mxGeometry y="26" width="160" height="30" as="geometry" />
        </mxCell>
        <mxCell id="yp1fL01CQpwrRcFzFMxe-74" value="belonging&lt;div style=&quot;border-color: var(--border-color); padding: 0px; margin: 0px;&quot;&gt;&lt;br style=&quot;border-color: var(--border-color); padding: 0px; margin: 0px;&quot;&gt;&lt;/div&gt;" style="text;strokeColor=none;fillColor=none;spacingLeft=4;spacingRight=4;overflow=hidden;rotatable=0;points=[[0,0.5],[1,0.5]];portConstraint=eastwest;fontSize=12;whiteSpace=wrap;html=1;" vertex="1" parent="yp1fL01CQpwrRcFzFMxe-72">
          <mxGeometry y="56" width="160" height="30" as="geometry" />
        </mxCell>
        <mxCell id="yp1fL01CQpwrRcFzFMxe-75" value="region_id" style="text;strokeColor=none;fillColor=none;spacingLeft=4;spacingRight=4;overflow=hidden;rotatable=0;points=[[0,0.5],[1,0.5]];portConstraint=eastwest;fontSize=12;whiteSpace=wrap;html=1;" vertex="1" parent="yp1fL01CQpwrRcFzFMxe-72">
          <mxGeometry y="86" width="160" height="30" as="geometry" />
        </mxCell>
        <mxCell id="yp1fL01CQpwrRcFzFMxe-126" style="edgeStyle=orthogonalEdgeStyle;rounded=0;orthogonalLoop=1;jettySize=auto;html=1;entryX=0.5;entryY=0;entryDx=0;entryDy=0;" edge="1" parent="1" source="yp1fL01CQpwrRcFzFMxe-76" target="yp1fL01CQpwrRcFzFMxe-72">
          <mxGeometry relative="1" as="geometry" />
        </mxCell>
        <mxCell id="yp1fL01CQpwrRcFzFMxe-76" value="Region" style="swimlane;fontStyle=0;childLayout=stackLayout;horizontal=1;startSize=26;horizontalStack=0;resizeParent=1;resizeParentMax=0;resizeLast=0;collapsible=1;marginBottom=0;align=center;fontSize=14;" vertex="1" parent="1">
          <mxGeometry x="300" y="210" width="160" height="86" as="geometry" />
        </mxCell>
        <mxCell id="yp1fL01CQpwrRcFzFMxe-77" value="name" style="text;strokeColor=none;fillColor=none;spacingLeft=4;spacingRight=4;overflow=hidden;rotatable=0;points=[[0,0.5],[1,0.5]];portConstraint=eastwest;fontSize=12;whiteSpace=wrap;html=1;" vertex="1" parent="yp1fL01CQpwrRcFzFMxe-76">
          <mxGeometry y="26" width="160" height="30" as="geometry" />
        </mxCell>
        <mxCell id="yp1fL01CQpwrRcFzFMxe-78" value="city_id" style="text;strokeColor=none;fillColor=none;spacingLeft=4;spacingRight=4;overflow=hidden;rotatable=0;points=[[0,0.5],[1,0.5]];portConstraint=eastwest;fontSize=12;whiteSpace=wrap;html=1;" vertex="1" parent="yp1fL01CQpwrRcFzFMxe-76">
          <mxGeometry y="56" width="160" height="30" as="geometry" />
        </mxCell>
        <mxCell id="yp1fL01CQpwrRcFzFMxe-128" style="edgeStyle=orthogonalEdgeStyle;rounded=0;orthogonalLoop=1;jettySize=auto;html=1;" edge="1" parent="1" source="yp1fL01CQpwrRcFzFMxe-80" target="yp1fL01CQpwrRcFzFMxe-84">
          <mxGeometry relative="1" as="geometry" />
        </mxCell>
        <mxCell id="yp1fL01CQpwrRcFzFMxe-80" value="Department" style="swimlane;fontStyle=0;childLayout=stackLayout;horizontal=1;startSize=26;horizontalStack=0;resizeParent=1;resizeParentMax=0;resizeLast=0;collapsible=1;marginBottom=0;align=center;fontSize=14;" vertex="1" parent="1">
          <mxGeometry x="300" y="540" width="160" height="86" as="geometry" />
        </mxCell>
        <mxCell id="yp1fL01CQpwrRcFzFMxe-81" value="name" style="text;strokeColor=none;fillColor=none;spacingLeft=4;spacingRight=4;overflow=hidden;rotatable=0;points=[[0,0.5],[1,0.5]];portConstraint=eastwest;fontSize=12;whiteSpace=wrap;html=1;" vertex="1" parent="yp1fL01CQpwrRcFzFMxe-80">
          <mxGeometry y="26" width="160" height="30" as="geometry" />
        </mxCell>
        <mxCell id="yp1fL01CQpwrRcFzFMxe-82" value="room" style="text;strokeColor=none;fillColor=none;spacingLeft=4;spacingRight=4;overflow=hidden;rotatable=0;points=[[0,0.5],[1,0.5]];portConstraint=eastwest;fontSize=12;whiteSpace=wrap;html=1;" vertex="1" parent="yp1fL01CQpwrRcFzFMxe-80">
          <mxGeometry y="56" width="160" height="30" as="geometry" />
        </mxCell>
        <mxCell id="yp1fL01CQpwrRcFzFMxe-129" style="edgeStyle=orthogonalEdgeStyle;rounded=0;orthogonalLoop=1;jettySize=auto;html=1;" edge="1" parent="1" source="yp1fL01CQpwrRcFzFMxe-84" target="yp1fL01CQpwrRcFzFMxe-88">
          <mxGeometry relative="1" as="geometry" />
        </mxCell>
        <mxCell id="yp1fL01CQpwrRcFzFMxe-84" value="Room" style="swimlane;fontStyle=0;childLayout=stackLayout;horizontal=1;startSize=26;horizontalStack=0;resizeParent=1;resizeParentMax=0;resizeLast=0;collapsible=1;marginBottom=0;align=center;fontSize=14;" vertex="1" parent="1">
          <mxGeometry x="300" y="670" width="160" height="116" as="geometry" />
        </mxCell>
        <mxCell id="yp1fL01CQpwrRcFzFMxe-85" value="name" style="text;strokeColor=none;fillColor=none;spacingLeft=4;spacingRight=4;overflow=hidden;rotatable=0;points=[[0,0.5],[1,0.5]];portConstraint=eastwest;fontSize=12;whiteSpace=wrap;html=1;" vertex="1" parent="yp1fL01CQpwrRcFzFMxe-84">
          <mxGeometry y="26" width="160" height="30" as="geometry" />
        </mxCell>
        <mxCell id="yp1fL01CQpwrRcFzFMxe-86" value="belonging" style="text;strokeColor=none;fillColor=none;spacingLeft=4;spacingRight=4;overflow=hidden;rotatable=0;points=[[0,0.5],[1,0.5]];portConstraint=eastwest;fontSize=12;whiteSpace=wrap;html=1;" vertex="1" parent="yp1fL01CQpwrRcFzFMxe-84">
          <mxGeometry y="56" width="160" height="30" as="geometry" />
        </mxCell>
        <mxCell id="yp1fL01CQpwrRcFzFMxe-87" value="person" style="text;strokeColor=none;fillColor=none;spacingLeft=4;spacingRight=4;overflow=hidden;rotatable=0;points=[[0,0.5],[1,0.5]];portConstraint=eastwest;fontSize=12;whiteSpace=wrap;html=1;" vertex="1" parent="yp1fL01CQpwrRcFzFMxe-84">
          <mxGeometry y="86" width="160" height="30" as="geometry" />
        </mxCell>
        <mxCell id="yp1fL01CQpwrRcFzFMxe-131" style="edgeStyle=orthogonalEdgeStyle;rounded=0;orthogonalLoop=1;jettySize=auto;html=1;entryX=0.994;entryY=0.767;entryDx=0;entryDy=0;entryPerimeter=0;" edge="1" parent="1" source="yp1fL01CQpwrRcFzFMxe-88" target="yp1fL01CQpwrRcFzFMxe-93">
          <mxGeometry relative="1" as="geometry" />
        </mxCell>
        <mxCell id="yp1fL01CQpwrRcFzFMxe-132" style="edgeStyle=orthogonalEdgeStyle;rounded=0;orthogonalLoop=1;jettySize=auto;html=1;entryX=-0.019;entryY=0.767;entryDx=0;entryDy=0;entryPerimeter=0;" edge="1" parent="1" source="yp1fL01CQpwrRcFzFMxe-88" target="yp1fL01CQpwrRcFzFMxe-97">
          <mxGeometry relative="1" as="geometry" />
        </mxCell>
        <mxCell id="yp1fL01CQpwrRcFzFMxe-88" value="Person" style="swimlane;fontStyle=0;childLayout=stackLayout;horizontal=1;startSize=26;horizontalStack=0;resizeParent=1;resizeParentMax=0;resizeLast=0;collapsible=1;marginBottom=0;align=center;fontSize=14;" vertex="1" parent="1">
          <mxGeometry x="300" y="820" width="160" height="86" as="geometry" />
        </mxCell>
        <mxCell id="yp1fL01CQpwrRcFzFMxe-89" value="name" style="text;strokeColor=none;fillColor=none;spacingLeft=4;spacingRight=4;overflow=hidden;rotatable=0;points=[[0,0.5],[1,0.5]];portConstraint=eastwest;fontSize=12;whiteSpace=wrap;html=1;" vertex="1" parent="yp1fL01CQpwrRcFzFMxe-88">
          <mxGeometry y="26" width="160" height="30" as="geometry" />
        </mxCell>
        <mxCell id="yp1fL01CQpwrRcFzFMxe-90" value="category" style="text;strokeColor=none;fillColor=none;spacingLeft=4;spacingRight=4;overflow=hidden;rotatable=0;points=[[0,0.5],[1,0.5]];portConstraint=eastwest;fontSize=12;whiteSpace=wrap;html=1;" vertex="1" parent="yp1fL01CQpwrRcFzFMxe-88">
          <mxGeometry y="56" width="160" height="30" as="geometry" />
        </mxCell>
        <mxCell id="yp1fL01CQpwrRcFzFMxe-92" value="Patient" style="swimlane;fontStyle=0;childLayout=stackLayout;horizontal=1;startSize=26;horizontalStack=0;resizeParent=1;resizeParentMax=0;resizeLast=0;collapsible=1;marginBottom=0;align=center;fontSize=14;" vertex="1" parent="1">
          <mxGeometry x="110" y="950" width="160" height="86" as="geometry" />
        </mxCell>
        <mxCell id="yp1fL01CQpwrRcFzFMxe-93" value="characteristic" style="text;strokeColor=none;fillColor=none;spacingLeft=4;spacingRight=4;overflow=hidden;rotatable=0;points=[[0,0.5],[1,0.5]];portConstraint=eastwest;fontSize=12;whiteSpace=wrap;html=1;" vertex="1" parent="yp1fL01CQpwrRcFzFMxe-92">
          <mxGeometry y="26" width="160" height="30" as="geometry" />
        </mxCell>
        <mxCell id="yp1fL01CQpwrRcFzFMxe-94" value="disease" style="text;strokeColor=none;fillColor=none;spacingLeft=4;spacingRight=4;overflow=hidden;rotatable=0;points=[[0,0.5],[1,0.5]];portConstraint=eastwest;fontSize=12;whiteSpace=wrap;html=1;" vertex="1" parent="yp1fL01CQpwrRcFzFMxe-92">
          <mxGeometry y="56" width="160" height="30" as="geometry" />
        </mxCell>
        <mxCell id="yp1fL01CQpwrRcFzFMxe-96" value="Employee" style="swimlane;fontStyle=0;childLayout=stackLayout;horizontal=1;startSize=26;horizontalStack=0;resizeParent=1;resizeParentMax=0;resizeLast=0;collapsible=1;marginBottom=0;align=center;fontSize=14;" vertex="1" parent="1">
          <mxGeometry x="490" y="950" width="160" height="86" as="geometry" />
        </mxCell>
        <mxCell id="yp1fL01CQpwrRcFzFMxe-97" value="Name" style="text;strokeColor=none;fillColor=none;spacingLeft=4;spacingRight=4;overflow=hidden;rotatable=0;points=[[0,0.5],[1,0.5]];portConstraint=eastwest;fontSize=12;whiteSpace=wrap;html=1;" vertex="1" parent="yp1fL01CQpwrRcFzFMxe-96">
          <mxGeometry y="26" width="160" height="30" as="geometry" />
        </mxCell>
        <mxCell id="yp1fL01CQpwrRcFzFMxe-98" value="function" style="text;strokeColor=none;fillColor=none;spacingLeft=4;spacingRight=4;overflow=hidden;rotatable=0;points=[[0,0.5],[1,0.5]];portConstraint=eastwest;fontSize=12;whiteSpace=wrap;html=1;" vertex="1" parent="yp1fL01CQpwrRcFzFMxe-96">
          <mxGeometry y="56" width="160" height="30" as="geometry" />
        </mxCell>
        <mxCell id="yp1fL01CQpwrRcFzFMxe-125" style="edgeStyle=orthogonalEdgeStyle;rounded=0;orthogonalLoop=1;jettySize=auto;html=1;entryX=0.5;entryY=0;entryDx=0;entryDy=0;" edge="1" parent="1" source="yp1fL01CQpwrRcFzFMxe-113" target="yp1fL01CQpwrRcFzFMxe-76">
          <mxGeometry relative="1" as="geometry" />
        </mxCell>
        <mxCell id="yp1fL01CQpwrRcFzFMxe-113" value="City" style="swimlane;fontStyle=0;childLayout=stackLayout;horizontal=1;startSize=26;horizontalStack=0;resizeParent=1;resizeParentMax=0;resizeLast=0;collapsible=1;marginBottom=0;align=center;fontSize=14;" vertex="1" parent="1">
          <mxGeometry x="300" y="110" width="160" height="56" as="geometry" />
        </mxCell>
        <mxCell id="yp1fL01CQpwrRcFzFMxe-114" value="name" style="text;strokeColor=none;fillColor=none;spacingLeft=4;spacingRight=4;overflow=hidden;rotatable=0;points=[[0,0.5],[1,0.5]];portConstraint=eastwest;fontSize=12;whiteSpace=wrap;html=1;" vertex="1" parent="yp1fL01CQpwrRcFzFMxe-113">
          <mxGeometry y="26" width="160" height="30" as="geometry" />
        </mxCell>
        <mxCell id="yp1fL01CQpwrRcFzFMxe-124" style="edgeStyle=orthogonalEdgeStyle;rounded=0;orthogonalLoop=1;jettySize=auto;html=1;" edge="1" parent="1" source="yp1fL01CQpwrRcFzFMxe-117" target="yp1fL01CQpwrRcFzFMxe-113">
          <mxGeometry relative="1" as="geometry" />
        </mxCell>
        <mxCell id="yp1fL01CQpwrRcFzFMxe-117" value="country" style="swimlane;fontStyle=0;childLayout=stackLayout;horizontal=1;startSize=26;horizontalStack=0;resizeParent=1;resizeParentMax=0;resizeLast=0;collapsible=1;marginBottom=0;align=center;fontSize=14;" vertex="1" parent="1">
          <mxGeometry x="300" width="160" height="56" as="geometry" />
        </mxCell>
        <mxCell id="yp1fL01CQpwrRcFzFMxe-118" value="name" style="text;strokeColor=none;fillColor=none;spacingLeft=4;spacingRight=4;overflow=hidden;rotatable=0;points=[[0,0.5],[1,0.5]];portConstraint=eastwest;fontSize=12;whiteSpace=wrap;html=1;" vertex="1" parent="yp1fL01CQpwrRcFzFMxe-117">
          <mxGeometry y="26" width="160" height="30" as="geometry" />
        </mxCell>
      </root>
    </mxGraphModel>
  </diagram>
</mxfile>
